<?xml version="1.0" encoding="UTF-8"?>
<svg version="1.1" baseProfile="tiny" xmlns="http://www.w3.org/2000/svg" width="406" height="406">
<rect shape-rendering="optimizeSpeed"  x="0" y="0" width="406" height="406" fill="white" />
<rect shape-rendering="optimizeSpeed"  x="0" y="0" width="14" height="14" fill="black" />
<rect shape-rendering="optimizeSpeed"  x="14" y="0" width="14" height="14" fill="black" />
<rect shape-rendering="optimizeSpeed"  x="28" y="0" width="14" height="14" fill="black" />
<rect shape-rendering="optimizeSpeed"  x="42" y="0" width="14" height="14" fill="black" />
<rect shape-rendering="optimizeSpeed"  x="56" y="0" width="14" height="14" fill="black" />
<rect shape-rendering="optimizeSpeed"  x="70" y="0" width="14" height="14" fill="black" />
<rect shape-rendering="optimizeSpeed"  x="84" y="0" width="14" height="14" fill="black" />
<rect shape-rendering="optimizeSpeed"  x="126" y="0" width="14" height="14" fill="black" />
<rect shape-rendering="optimizeSpeed"  x="210" y="0" width="14" height="14" fill="black" />
<rect shape-rendering="optimizeSpeed"  x="224" y="0" width="14" height="14" fill="black" />
<rect shape-rendering="optimizeSpeed"  x="238" y="0" width="14" height="14" fill="black" />
<rect shape-rendering="optimizeSpeed"  x="252" y="0" width="14" height="14" fill="black" />
<rect shape-rendering="optimizeSpeed"  x="266" y="0" width="14" height="14" fill="black" />
<rect shape-rendering="optimizeSpeed"  x="280" y="0" width="14" height="14" fill="black" />
<rect shape-rendering="optimizeSpeed"  x="308" y="0" width="14" height="14" fill="black" />
<rect shape-rendering="optimizeSpeed"  x="322" y="0" width="14" height="14" fill="black" />
<rect shape-rendering="optimizeSpeed"  x="336" y="0" width="14" height="14" fill="black" />
<rect shape-rendering="optimizeSpeed"  x="350" y="0" width="14" height="14" fill="black" />
<rect shape-rendering="optimizeSpeed"  x="364" y="0" width="14" height="14" fill="black" />
<rect shape-rendering="optimizeSpeed"  x="378" y="0" width="14" height="14" fill="black" />
<rect shape-rendering="optimizeSpeed"  x="392" y="0" width="14" height="14" fill="black" />
<rect shape-rendering="optimizeSpeed"  x="0" y="14" width="14" height="14" fill="black" />
<rect shape-rendering="optimizeSpeed"  x="84" y="14" width="14" height="14" fill="black" />
<rect shape-rendering="optimizeSpeed"  x="112" y="14" width="14" height="14" fill="black" />
<rect shape-rendering="optimizeSpeed"  x="126" y="14" width="14" height="14" fill="black" />
<rect shape-rendering="optimizeSpeed"  x="154" y="14" width="14" height="14" fill="black" />
<rect shape-rendering="optimizeSpeed"  x="168" y="14" width="14" height="14" fill="black" />
<rect shape-rendering="optimizeSpeed"  x="252" y="14" width="14" height="14" fill="black" />
<rect shape-rendering="optimizeSpeed"  x="308" y="14" width="14" height="14" fill="black" />
<rect shape-rendering="optimizeSpeed"  x="392" y="14" width="14" height="14" fill="black" />
<rect shape-rendering="optimizeSpeed"  x="0" y="28" width="14" height="14" fill="black" />
<rect shape-rendering="optimizeSpeed"  x="28" y="28" width="14" height="14" fill="black" />
<rect shape-rendering="optimizeSpeed"  x="42" y="28" width="14" height="14" fill="black" />
<rect shape-rendering="optimizeSpeed"  x="56" y="28" width="14" height="14" fill="black" />
<rect shape-rendering="optimizeSpeed"  x="84" y="28" width="14" height="14" fill="black" />
<rect shape-rendering="optimizeSpeed"  x="126" y="28" width="14" height="14" fill="black" />
<rect shape-rendering="optimizeSpeed"  x="140" y="28" width="14" height="14" fill="black" />
<rect shape-rendering="optimizeSpeed"  x="154" y="28" width="14" height="14" fill="black" />
<rect shape-rendering="optimizeSpeed"  x="196" y="28" width="14" height="14" fill="black" />
<rect shape-rendering="optimizeSpeed"  x="224" y="28" width="14" height="14" fill="black" />
<rect shape-rendering="optimizeSpeed"  x="280" y="28" width="14" height="14" fill="black" />
<rect shape-rendering="optimizeSpeed"  x="308" y="28" width="14" height="14" fill="black" />
<rect shape-rendering="optimizeSpeed"  x="336" y="28" width="14" height="14" fill="black" />
<rect shape-rendering="optimizeSpeed"  x="350" y="28" width="14" height="14" fill="black" />
<rect shape-rendering="optimizeSpeed"  x="364" y="28" width="14" height="14" fill="black" />
<rect shape-rendering="optimizeSpeed"  x="392" y="28" width="14" height="14" fill="black" />
<rect shape-rendering="optimizeSpeed"  x="0" y="42" width="14" height="14" fill="black" />
<rect shape-rendering="optimizeSpeed"  x="28" y="42" width="14" height="14" fill="black" />
<rect shape-rendering="optimizeSpeed"  x="42" y="42" width="14" height="14" fill="black" />
<rect shape-rendering="optimizeSpeed"  x="56" y="42" width="14" height="14" fill="black" />
<rect shape-rendering="optimizeSpeed"  x="84" y="42" width="14" height="14" fill="black" />
<rect shape-rendering="optimizeSpeed"  x="112" y="42" width="14" height="14" fill="black" />
<rect shape-rendering="optimizeSpeed"  x="126" y="42" width="14" height="14" fill="black" />
<rect shape-rendering="optimizeSpeed"  x="154" y="42" width="14" height="14" fill="black" />
<rect shape-rendering="optimizeSpeed"  x="224" y="42" width="14" height="14" fill="black" />
<rect shape-rendering="optimizeSpeed"  x="238" y="42" width="14" height="14" fill="black" />
<rect shape-rendering="optimizeSpeed"  x="266" y="42" width="14" height="14" fill="black" />
<rect shape-rendering="optimizeSpeed"  x="308" y="42" width="14" height="14" fill="black" />
<rect shape-rendering="optimizeSpeed"  x="336" y="42" width="14" height="14" fill="black" />
<rect shape-rendering="optimizeSpeed"  x="350" y="42" width="14" height="14" fill="black" />
<rect shape-rendering="optimizeSpeed"  x="364" y="42" width="14" height="14" fill="black" />
<rect shape-rendering="optimizeSpeed"  x="392" y="42" width="14" height="14" fill="black" />
<rect shape-rendering="optimizeSpeed"  x="0" y="56" width="14" height="14" fill="black" />
<rect shape-rendering="optimizeSpeed"  x="28" y="56" width="14" height="14" fill="black" />
<rect shape-rendering="optimizeSpeed"  x="42" y="56" width="14" height="14" fill="black" />
<rect shape-rendering="optimizeSpeed"  x="56" y="56" width="14" height="14" fill="black" />
<rect shape-rendering="optimizeSpeed"  x="84" y="56" width="14" height="14" fill="black" />
<rect shape-rendering="optimizeSpeed"  x="140" y="56" width="14" height="14" fill="black" />
<rect shape-rendering="optimizeSpeed"  x="168" y="56" width="14" height="14" fill="black" />
<rect shape-rendering="optimizeSpeed"  x="182" y="56" width="14" height="14" fill="black" />
<rect shape-rendering="optimizeSpeed"  x="196" y="56" width="14" height="14" fill="black" />
<rect shape-rendering="optimizeSpeed"  x="210" y="56" width="14" height="14" fill="black" />
<rect shape-rendering="optimizeSpeed"  x="252" y="56" width="14" height="14" fill="black" />
<rect shape-rendering="optimizeSpeed"  x="266" y="56" width="14" height="14" fill="black" />
<rect shape-rendering="optimizeSpeed"  x="280" y="56" width="14" height="14" fill="black" />
<rect shape-rendering="optimizeSpeed"  x="308" y="56" width="14" height="14" fill="black" />
<rect shape-rendering="optimizeSpeed"  x="336" y="56" width="14" height="14" fill="black" />
<rect shape-rendering="optimizeSpeed"  x="350" y="56" width="14" height="14" fill="black" />
<rect shape-rendering="optimizeSpeed"  x="364" y="56" width="14" height="14" fill="black" />
<rect shape-rendering="optimizeSpeed"  x="392" y="56" width="14" height="14" fill="black" />
<rect shape-rendering="optimizeSpeed"  x="0" y="70" width="14" height="14" fill="black" />
<rect shape-rendering="optimizeSpeed"  x="84" y="70" width="14" height="14" fill="black" />
<rect shape-rendering="optimizeSpeed"  x="112" y="70" width="14" height="14" fill="black" />
<rect shape-rendering="optimizeSpeed"  x="140" y="70" width="14" height="14" fill="black" />
<rect shape-rendering="optimizeSpeed"  x="182" y="70" width="14" height="14" fill="black" />
<rect shape-rendering="optimizeSpeed"  x="196" y="70" width="14" height="14" fill="black" />
<rect shape-rendering="optimizeSpeed"  x="210" y="70" width="14" height="14" fill="black" />
<rect shape-rendering="optimizeSpeed"  x="224" y="70" width="14" height="14" fill="black" />
<rect shape-rendering="optimizeSpeed"  x="280" y="70" width="14" height="14" fill="black" />
<rect shape-rendering="optimizeSpeed"  x="308" y="70" width="14" height="14" fill="black" />
<rect shape-rendering="optimizeSpeed"  x="392" y="70" width="14" height="14" fill="black" />
<rect shape-rendering="optimizeSpeed"  x="0" y="84" width="14" height="14" fill="black" />
<rect shape-rendering="optimizeSpeed"  x="14" y="84" width="14" height="14" fill="black" />
<rect shape-rendering="optimizeSpeed"  x="28" y="84" width="14" height="14" fill="black" />
<rect shape-rendering="optimizeSpeed"  x="42" y="84" width="14" height="14" fill="black" />
<rect shape-rendering="optimizeSpeed"  x="56" y="84" width="14" height="14" fill="black" />
<rect shape-rendering="optimizeSpeed"  x="70" y="84" width="14" height="14" fill="black" />
<rect shape-rendering="optimizeSpeed"  x="84" y="84" width="14" height="14" fill="black" />
<rect shape-rendering="optimizeSpeed"  x="112" y="84" width="14" height="14" fill="black" />
<rect shape-rendering="optimizeSpeed"  x="140" y="84" width="14" height="14" fill="black" />
<rect shape-rendering="optimizeSpeed"  x="168" y="84" width="14" height="14" fill="black" />
<rect shape-rendering="optimizeSpeed"  x="196" y="84" width="14" height="14" fill="black" />
<rect shape-rendering="optimizeSpeed"  x="224" y="84" width="14" height="14" fill="black" />
<rect shape-rendering="optimizeSpeed"  x="252" y="84" width="14" height="14" fill="black" />
<rect shape-rendering="optimizeSpeed"  x="280" y="84" width="14" height="14" fill="black" />
<rect shape-rendering="optimizeSpeed"  x="308" y="84" width="14" height="14" fill="black" />
<rect shape-rendering="optimizeSpeed"  x="322" y="84" width="14" height="14" fill="black" />
<rect shape-rendering="optimizeSpeed"  x="336" y="84" width="14" height="14" fill="black" />
<rect shape-rendering="optimizeSpeed"  x="350" y="84" width="14" height="14" fill="black" />
<rect shape-rendering="optimizeSpeed"  x="364" y="84" width="14" height="14" fill="black" />
<rect shape-rendering="optimizeSpeed"  x="378" y="84" width="14" height="14" fill="black" />
<rect shape-rendering="optimizeSpeed"  x="392" y="84" width="14" height="14" fill="black" />
<rect shape-rendering="optimizeSpeed"  x="168" y="98" width="14" height="14" fill="black" />
<rect shape-rendering="optimizeSpeed"  x="182" y="98" width="14" height="14" fill="black" />
<rect shape-rendering="optimizeSpeed"  x="210" y="98" width="14" height="14" fill="black" />
<rect shape-rendering="optimizeSpeed"  x="266" y="98" width="14" height="14" fill="black" />
<rect shape-rendering="optimizeSpeed"  x="0" y="112" width="14" height="14" fill="black" />
<rect shape-rendering="optimizeSpeed"  x="14" y="112" width="14" height="14" fill="black" />
<rect shape-rendering="optimizeSpeed"  x="28" y="112" width="14" height="14" fill="black" />
<rect shape-rendering="optimizeSpeed"  x="42" y="112" width="14" height="14" fill="black" />
<rect shape-rendering="optimizeSpeed"  x="56" y="112" width="14" height="14" fill="black" />
<rect shape-rendering="optimizeSpeed"  x="84" y="112" width="14" height="14" fill="black" />
<rect shape-rendering="optimizeSpeed"  x="98" y="112" width="14" height="14" fill="black" />
<rect shape-rendering="optimizeSpeed"  x="112" y="112" width="14" height="14" fill="black" />
<rect shape-rendering="optimizeSpeed"  x="126" y="112" width="14" height="14" fill="black" />
<rect shape-rendering="optimizeSpeed"  x="140" y="112" width="14" height="14" fill="black" />
<rect shape-rendering="optimizeSpeed"  x="168" y="112" width="14" height="14" fill="black" />
<rect shape-rendering="optimizeSpeed"  x="196" y="112" width="14" height="14" fill="black" />
<rect shape-rendering="optimizeSpeed"  x="210" y="112" width="14" height="14" fill="black" />
<rect shape-rendering="optimizeSpeed"  x="238" y="112" width="14" height="14" fill="black" />
<rect shape-rendering="optimizeSpeed"  x="280" y="112" width="14" height="14" fill="black" />
<rect shape-rendering="optimizeSpeed"  x="294" y="112" width="14" height="14" fill="black" />
<rect shape-rendering="optimizeSpeed"  x="322" y="112" width="14" height="14" fill="black" />
<rect shape-rendering="optimizeSpeed"  x="350" y="112" width="14" height="14" fill="black" />
<rect shape-rendering="optimizeSpeed"  x="378" y="112" width="14" height="14" fill="black" />
<rect shape-rendering="optimizeSpeed"  x="0" y="126" width="14" height="14" fill="black" />
<rect shape-rendering="optimizeSpeed"  x="28" y="126" width="14" height="14" fill="black" />
<rect shape-rendering="optimizeSpeed"  x="112" y="126" width="14" height="14" fill="black" />
<rect shape-rendering="optimizeSpeed"  x="126" y="126" width="14" height="14" fill="black" />
<rect shape-rendering="optimizeSpeed"  x="210" y="126" width="14" height="14" fill="black" />
<rect shape-rendering="optimizeSpeed"  x="224" y="126" width="14" height="14" fill="black" />
<rect shape-rendering="optimizeSpeed"  x="266" y="126" width="14" height="14" fill="black" />
<rect shape-rendering="optimizeSpeed"  x="280" y="126" width="14" height="14" fill="black" />
<rect shape-rendering="optimizeSpeed"  x="308" y="126" width="14" height="14" fill="black" />
<rect shape-rendering="optimizeSpeed"  x="322" y="126" width="14" height="14" fill="black" />
<rect shape-rendering="optimizeSpeed"  x="336" y="126" width="14" height="14" fill="black" />
<rect shape-rendering="optimizeSpeed"  x="364" y="126" width="14" height="14" fill="black" />
<rect shape-rendering="optimizeSpeed"  x="392" y="126" width="14" height="14" fill="black" />
<rect shape-rendering="optimizeSpeed"  x="14" y="140" width="14" height="14" fill="black" />
<rect shape-rendering="optimizeSpeed"  x="28" y="140" width="14" height="14" fill="black" />
<rect shape-rendering="optimizeSpeed"  x="42" y="140" width="14" height="14" fill="black" />
<rect shape-rendering="optimizeSpeed"  x="56" y="140" width="14" height="14" fill="black" />
<rect shape-rendering="optimizeSpeed"  x="84" y="140" width="14" height="14" fill="black" />
<rect shape-rendering="optimizeSpeed"  x="126" y="140" width="14" height="14" fill="black" />
<rect shape-rendering="optimizeSpeed"  x="154" y="140" width="14" height="14" fill="black" />
<rect shape-rendering="optimizeSpeed"  x="168" y="140" width="14" height="14" fill="black" />
<rect shape-rendering="optimizeSpeed"  x="280" y="140" width="14" height="14" fill="black" />
<rect shape-rendering="optimizeSpeed"  x="294" y="140" width="14" height="14" fill="black" />
<rect shape-rendering="optimizeSpeed"  x="322" y="140" width="14" height="14" fill="black" />
<rect shape-rendering="optimizeSpeed"  x="364" y="140" width="14" height="14" fill="black" />
<rect shape-rendering="optimizeSpeed"  x="378" y="140" width="14" height="14" fill="black" />
<rect shape-rendering="optimizeSpeed"  x="14" y="154" width="14" height="14" fill="black" />
<rect shape-rendering="optimizeSpeed"  x="28" y="154" width="14" height="14" fill="black" />
<rect shape-rendering="optimizeSpeed"  x="98" y="154" width="14" height="14" fill="black" />
<rect shape-rendering="optimizeSpeed"  x="112" y="154" width="14" height="14" fill="black" />
<rect shape-rendering="optimizeSpeed"  x="126" y="154" width="14" height="14" fill="black" />
<rect shape-rendering="optimizeSpeed"  x="140" y="154" width="14" height="14" fill="black" />
<rect shape-rendering="optimizeSpeed"  x="154" y="154" width="14" height="14" fill="black" />
<rect shape-rendering="optimizeSpeed"  x="196" y="154" width="14" height="14" fill="black" />
<rect shape-rendering="optimizeSpeed"  x="224" y="154" width="14" height="14" fill="black" />
<rect shape-rendering="optimizeSpeed"  x="252" y="154" width="14" height="14" fill="black" />
<rect shape-rendering="optimizeSpeed"  x="308" y="154" width="14" height="14" fill="black" />
<rect shape-rendering="optimizeSpeed"  x="322" y="154" width="14" height="14" fill="black" />
<rect shape-rendering="optimizeSpeed"  x="378" y="154" width="14" height="14" fill="black" />
<rect shape-rendering="optimizeSpeed"  x="42" y="168" width="14" height="14" fill="black" />
<rect shape-rendering="optimizeSpeed"  x="56" y="168" width="14" height="14" fill="black" />
<rect shape-rendering="optimizeSpeed"  x="70" y="168" width="14" height="14" fill="black" />
<rect shape-rendering="optimizeSpeed"  x="84" y="168" width="14" height="14" fill="black" />
<rect shape-rendering="optimizeSpeed"  x="126" y="168" width="14" height="14" fill="black" />
<rect shape-rendering="optimizeSpeed"  x="154" y="168" width="14" height="14" fill="black" />
<rect shape-rendering="optimizeSpeed"  x="238" y="168" width="14" height="14" fill="black" />
<rect shape-rendering="optimizeSpeed"  x="252" y="168" width="14" height="14" fill="black" />
<rect shape-rendering="optimizeSpeed"  x="364" y="168" width="14" height="14" fill="black" />
<rect shape-rendering="optimizeSpeed"  x="378" y="168" width="14" height="14" fill="black" />
<rect shape-rendering="optimizeSpeed"  x="0" y="182" width="14" height="14" fill="black" />
<rect shape-rendering="optimizeSpeed"  x="14" y="182" width="14" height="14" fill="black" />
<rect shape-rendering="optimizeSpeed"  x="42" y="182" width="14" height="14" fill="black" />
<rect shape-rendering="optimizeSpeed"  x="56" y="182" width="14" height="14" fill="black" />
<rect shape-rendering="optimizeSpeed"  x="98" y="182" width="14" height="14" fill="black" />
<rect shape-rendering="optimizeSpeed"  x="112" y="182" width="14" height="14" fill="black" />
<rect shape-rendering="optimizeSpeed"  x="140" y="182" width="14" height="14" fill="black" />
<rect shape-rendering="optimizeSpeed"  x="168" y="182" width="14" height="14" fill="black" />
<rect shape-rendering="optimizeSpeed"  x="182" y="182" width="14" height="14" fill="black" />
<rect shape-rendering="optimizeSpeed"  x="196" y="182" width="14" height="14" fill="black" />
<rect shape-rendering="optimizeSpeed"  x="210" y="182" width="14" height="14" fill="black" />
<rect shape-rendering="optimizeSpeed"  x="238" y="182" width="14" height="14" fill="black" />
<rect shape-rendering="optimizeSpeed"  x="252" y="182" width="14" height="14" fill="black" />
<rect shape-rendering="optimizeSpeed"  x="266" y="182" width="14" height="14" fill="black" />
<rect shape-rendering="optimizeSpeed"  x="280" y="182" width="14" height="14" fill="black" />
<rect shape-rendering="optimizeSpeed"  x="308" y="182" width="14" height="14" fill="black" />
<rect shape-rendering="optimizeSpeed"  x="322" y="182" width="14" height="14" fill="black" />
<rect shape-rendering="optimizeSpeed"  x="336" y="182" width="14" height="14" fill="black" />
<rect shape-rendering="optimizeSpeed"  x="350" y="182" width="14" height="14" fill="black" />
<rect shape-rendering="optimizeSpeed"  x="364" y="182" width="14" height="14" fill="black" />
<rect shape-rendering="optimizeSpeed"  x="392" y="182" width="14" height="14" fill="black" />
<rect shape-rendering="optimizeSpeed"  x="14" y="196" width="14" height="14" fill="black" />
<rect shape-rendering="optimizeSpeed"  x="42" y="196" width="14" height="14" fill="black" />
<rect shape-rendering="optimizeSpeed"  x="84" y="196" width="14" height="14" fill="black" />
<rect shape-rendering="optimizeSpeed"  x="98" y="196" width="14" height="14" fill="black" />
<rect shape-rendering="optimizeSpeed"  x="112" y="196" width="14" height="14" fill="black" />
<rect shape-rendering="optimizeSpeed"  x="126" y="196" width="14" height="14" fill="black" />
<rect shape-rendering="optimizeSpeed"  x="182" y="196" width="14" height="14" fill="black" />
<rect shape-rendering="optimizeSpeed"  x="196" y="196" width="14" height="14" fill="black" />
<rect shape-rendering="optimizeSpeed"  x="210" y="196" width="14" height="14" fill="black" />
<rect shape-rendering="optimizeSpeed"  x="224" y="196" width="14" height="14" fill="black" />
<rect shape-rendering="optimizeSpeed"  x="238" y="196" width="14" height="14" fill="black" />
<rect shape-rendering="optimizeSpeed"  x="280" y="196" width="14" height="14" fill="black" />
<rect shape-rendering="optimizeSpeed"  x="336" y="196" width="14" height="14" fill="black" />
<rect shape-rendering="optimizeSpeed"  x="350" y="196" width="14" height="14" fill="black" />
<rect shape-rendering="optimizeSpeed"  x="364" y="196" width="14" height="14" fill="black" />
<rect shape-rendering="optimizeSpeed"  x="98" y="210" width="14" height="14" fill="black" />
<rect shape-rendering="optimizeSpeed"  x="112" y="210" width="14" height="14" fill="black" />
<rect shape-rendering="optimizeSpeed"  x="126" y="210" width="14" height="14" fill="black" />
<rect shape-rendering="optimizeSpeed"  x="140" y="210" width="14" height="14" fill="black" />
<rect shape-rendering="optimizeSpeed"  x="168" y="210" width="14" height="14" fill="black" />
<rect shape-rendering="optimizeSpeed"  x="182" y="210" width="14" height="14" fill="black" />
<rect shape-rendering="optimizeSpeed"  x="210" y="210" width="14" height="14" fill="black" />
<rect shape-rendering="optimizeSpeed"  x="266" y="210" width="14" height="14" fill="black" />
<rect shape-rendering="optimizeSpeed"  x="294" y="210" width="14" height="14" fill="black" />
<rect shape-rendering="optimizeSpeed"  x="378" y="210" width="14" height="14" fill="black" />
<rect shape-rendering="optimizeSpeed"  x="0" y="224" width="14" height="14" fill="black" />
<rect shape-rendering="optimizeSpeed"  x="42" y="224" width="14" height="14" fill="black" />
<rect shape-rendering="optimizeSpeed"  x="70" y="224" width="14" height="14" fill="black" />
<rect shape-rendering="optimizeSpeed"  x="84" y="224" width="14" height="14" fill="black" />
<rect shape-rendering="optimizeSpeed"  x="98" y="224" width="14" height="14" fill="black" />
<rect shape-rendering="optimizeSpeed"  x="112" y="224" width="14" height="14" fill="black" />
<rect shape-rendering="optimizeSpeed"  x="126" y="224" width="14" height="14" fill="black" />
<rect shape-rendering="optimizeSpeed"  x="168" y="224" width="14" height="14" fill="black" />
<rect shape-rendering="optimizeSpeed"  x="196" y="224" width="14" height="14" fill="black" />
<rect shape-rendering="optimizeSpeed"  x="210" y="224" width="14" height="14" fill="black" />
<rect shape-rendering="optimizeSpeed"  x="294" y="224" width="14" height="14" fill="black" />
<rect shape-rendering="optimizeSpeed"  x="364" y="224" width="14" height="14" fill="black" />
<rect shape-rendering="optimizeSpeed"  x="378" y="224" width="14" height="14" fill="black" />
<rect shape-rendering="optimizeSpeed"  x="392" y="224" width="14" height="14" fill="black" />
<rect shape-rendering="optimizeSpeed"  x="0" y="238" width="14" height="14" fill="black" />
<rect shape-rendering="optimizeSpeed"  x="14" y="238" width="14" height="14" fill="black" />
<rect shape-rendering="optimizeSpeed"  x="28" y="238" width="14" height="14" fill="black" />
<rect shape-rendering="optimizeSpeed"  x="70" y="238" width="14" height="14" fill="black" />
<rect shape-rendering="optimizeSpeed"  x="98" y="238" width="14" height="14" fill="black" />
<rect shape-rendering="optimizeSpeed"  x="112" y="238" width="14" height="14" fill="black" />
<rect shape-rendering="optimizeSpeed"  x="126" y="238" width="14" height="14" fill="black" />
<rect shape-rendering="optimizeSpeed"  x="140" y="238" width="14" height="14" fill="black" />
<rect shape-rendering="optimizeSpeed"  x="224" y="238" width="14" height="14" fill="black" />
<rect shape-rendering="optimizeSpeed"  x="252" y="238" width="14" height="14" fill="black" />
<rect shape-rendering="optimizeSpeed"  x="266" y="238" width="14" height="14" fill="black" />
<rect shape-rendering="optimizeSpeed"  x="280" y="238" width="14" height="14" fill="black" />
<rect shape-rendering="optimizeSpeed"  x="294" y="238" width="14" height="14" fill="black" />
<rect shape-rendering="optimizeSpeed"  x="308" y="238" width="14" height="14" fill="black" />
<rect shape-rendering="optimizeSpeed"  x="322" y="238" width="14" height="14" fill="black" />
<rect shape-rendering="optimizeSpeed"  x="336" y="238" width="14" height="14" fill="black" />
<rect shape-rendering="optimizeSpeed"  x="350" y="238" width="14" height="14" fill="black" />
<rect shape-rendering="optimizeSpeed"  x="364" y="238" width="14" height="14" fill="black" />
<rect shape-rendering="optimizeSpeed"  x="392" y="238" width="14" height="14" fill="black" />
<rect shape-rendering="optimizeSpeed"  x="0" y="252" width="14" height="14" fill="black" />
<rect shape-rendering="optimizeSpeed"  x="42" y="252" width="14" height="14" fill="black" />
<rect shape-rendering="optimizeSpeed"  x="56" y="252" width="14" height="14" fill="black" />
<rect shape-rendering="optimizeSpeed"  x="70" y="252" width="14" height="14" fill="black" />
<rect shape-rendering="optimizeSpeed"  x="84" y="252" width="14" height="14" fill="black" />
<rect shape-rendering="optimizeSpeed"  x="126" y="252" width="14" height="14" fill="black" />
<rect shape-rendering="optimizeSpeed"  x="140" y="252" width="14" height="14" fill="black" />
<rect shape-rendering="optimizeSpeed"  x="154" y="252" width="14" height="14" fill="black" />
<rect shape-rendering="optimizeSpeed"  x="168" y="252" width="14" height="14" fill="black" />
<rect shape-rendering="optimizeSpeed"  x="210" y="252" width="14" height="14" fill="black" />
<rect shape-rendering="optimizeSpeed"  x="280" y="252" width="14" height="14" fill="black" />
<rect shape-rendering="optimizeSpeed"  x="308" y="252" width="14" height="14" fill="black" />
<rect shape-rendering="optimizeSpeed"  x="350" y="252" width="14" height="14" fill="black" />
<rect shape-rendering="optimizeSpeed"  x="364" y="252" width="14" height="14" fill="black" />
<rect shape-rendering="optimizeSpeed"  x="0" y="266" width="14" height="14" fill="black" />
<rect shape-rendering="optimizeSpeed"  x="42" y="266" width="14" height="14" fill="black" />
<rect shape-rendering="optimizeSpeed"  x="56" y="266" width="14" height="14" fill="black" />
<rect shape-rendering="optimizeSpeed"  x="70" y="266" width="14" height="14" fill="black" />
<rect shape-rendering="optimizeSpeed"  x="98" y="266" width="14" height="14" fill="black" />
<rect shape-rendering="optimizeSpeed"  x="112" y="266" width="14" height="14" fill="black" />
<rect shape-rendering="optimizeSpeed"  x="154" y="266" width="14" height="14" fill="black" />
<rect shape-rendering="optimizeSpeed"  x="196" y="266" width="14" height="14" fill="black" />
<rect shape-rendering="optimizeSpeed"  x="210" y="266" width="14" height="14" fill="black" />
<rect shape-rendering="optimizeSpeed"  x="224" y="266" width="14" height="14" fill="black" />
<rect shape-rendering="optimizeSpeed"  x="280" y="266" width="14" height="14" fill="black" />
<rect shape-rendering="optimizeSpeed"  x="308" y="266" width="14" height="14" fill="black" />
<rect shape-rendering="optimizeSpeed"  x="322" y="266" width="14" height="14" fill="black" />
<rect shape-rendering="optimizeSpeed"  x="350" y="266" width="14" height="14" fill="black" />
<rect shape-rendering="optimizeSpeed"  x="0" y="280" width="14" height="14" fill="black" />
<rect shape-rendering="optimizeSpeed"  x="42" y="280" width="14" height="14" fill="black" />
<rect shape-rendering="optimizeSpeed"  x="84" y="280" width="14" height="14" fill="black" />
<rect shape-rendering="optimizeSpeed"  x="98" y="280" width="14" height="14" fill="black" />
<rect shape-rendering="optimizeSpeed"  x="112" y="280" width="14" height="14" fill="black" />
<rect shape-rendering="optimizeSpeed"  x="154" y="280" width="14" height="14" fill="black" />
<rect shape-rendering="optimizeSpeed"  x="210" y="280" width="14" height="14" fill="black" />
<rect shape-rendering="optimizeSpeed"  x="224" y="280" width="14" height="14" fill="black" />
<rect shape-rendering="optimizeSpeed"  x="238" y="280" width="14" height="14" fill="black" />
<rect shape-rendering="optimizeSpeed"  x="280" y="280" width="14" height="14" fill="black" />
<rect shape-rendering="optimizeSpeed"  x="294" y="280" width="14" height="14" fill="black" />
<rect shape-rendering="optimizeSpeed"  x="308" y="280" width="14" height="14" fill="black" />
<rect shape-rendering="optimizeSpeed"  x="322" y="280" width="14" height="14" fill="black" />
<rect shape-rendering="optimizeSpeed"  x="336" y="280" width="14" height="14" fill="black" />
<rect shape-rendering="optimizeSpeed"  x="364" y="280" width="14" height="14" fill="black" />
<rect shape-rendering="optimizeSpeed"  x="112" y="294" width="14" height="14" fill="black" />
<rect shape-rendering="optimizeSpeed"  x="126" y="294" width="14" height="14" fill="black" />
<rect shape-rendering="optimizeSpeed"  x="140" y="294" width="14" height="14" fill="black" />
<rect shape-rendering="optimizeSpeed"  x="168" y="294" width="14" height="14" fill="black" />
<rect shape-rendering="optimizeSpeed"  x="182" y="294" width="14" height="14" fill="black" />
<rect shape-rendering="optimizeSpeed"  x="196" y="294" width="14" height="14" fill="black" />
<rect shape-rendering="optimizeSpeed"  x="224" y="294" width="14" height="14" fill="black" />
<rect shape-rendering="optimizeSpeed"  x="252" y="294" width="14" height="14" fill="black" />
<rect shape-rendering="optimizeSpeed"  x="266" y="294" width="14" height="14" fill="black" />
<rect shape-rendering="optimizeSpeed"  x="280" y="294" width="14" height="14" fill="black" />
<rect shape-rendering="optimizeSpeed"  x="336" y="294" width="14" height="14" fill="black" />
<rect shape-rendering="optimizeSpeed"  x="350" y="294" width="14" height="14" fill="black" />
<rect shape-rendering="optimizeSpeed"  x="378" y="294" width="14" height="14" fill="black" />
<rect shape-rendering="optimizeSpeed"  x="392" y="294" width="14" height="14" fill="black" />
<rect shape-rendering="optimizeSpeed"  x="0" y="308" width="14" height="14" fill="black" />
<rect shape-rendering="optimizeSpeed"  x="14" y="308" width="14" height="14" fill="black" />
<rect shape-rendering="optimizeSpeed"  x="28" y="308" width="14" height="14" fill="black" />
<rect shape-rendering="optimizeSpeed"  x="42" y="308" width="14" height="14" fill="black" />
<rect shape-rendering="optimizeSpeed"  x="56" y="308" width="14" height="14" fill="black" />
<rect shape-rendering="optimizeSpeed"  x="70" y="308" width="14" height="14" fill="black" />
<rect shape-rendering="optimizeSpeed"  x="84" y="308" width="14" height="14" fill="black" />
<rect shape-rendering="optimizeSpeed"  x="112" y="308" width="14" height="14" fill="black" />
<rect shape-rendering="optimizeSpeed"  x="126" y="308" width="14" height="14" fill="black" />
<rect shape-rendering="optimizeSpeed"  x="140" y="308" width="14" height="14" fill="black" />
<rect shape-rendering="optimizeSpeed"  x="182" y="308" width="14" height="14" fill="black" />
<rect shape-rendering="optimizeSpeed"  x="196" y="308" width="14" height="14" fill="black" />
<rect shape-rendering="optimizeSpeed"  x="210" y="308" width="14" height="14" fill="black" />
<rect shape-rendering="optimizeSpeed"  x="224" y="308" width="14" height="14" fill="black" />
<rect shape-rendering="optimizeSpeed"  x="238" y="308" width="14" height="14" fill="black" />
<rect shape-rendering="optimizeSpeed"  x="252" y="308" width="14" height="14" fill="black" />
<rect shape-rendering="optimizeSpeed"  x="266" y="308" width="14" height="14" fill="black" />
<rect shape-rendering="optimizeSpeed"  x="280" y="308" width="14" height="14" fill="black" />
<rect shape-rendering="optimizeSpeed"  x="308" y="308" width="14" height="14" fill="black" />
<rect shape-rendering="optimizeSpeed"  x="336" y="308" width="14" height="14" fill="black" />
<rect shape-rendering="optimizeSpeed"  x="350" y="308" width="14" height="14" fill="black" />
<rect shape-rendering="optimizeSpeed"  x="0" y="322" width="14" height="14" fill="black" />
<rect shape-rendering="optimizeSpeed"  x="84" y="322" width="14" height="14" fill="black" />
<rect shape-rendering="optimizeSpeed"  x="140" y="322" width="14" height="14" fill="black" />
<rect shape-rendering="optimizeSpeed"  x="168" y="322" width="14" height="14" fill="black" />
<rect shape-rendering="optimizeSpeed"  x="182" y="322" width="14" height="14" fill="black" />
<rect shape-rendering="optimizeSpeed"  x="210" y="322" width="14" height="14" fill="black" />
<rect shape-rendering="optimizeSpeed"  x="224" y="322" width="14" height="14" fill="black" />
<rect shape-rendering="optimizeSpeed"  x="266" y="322" width="14" height="14" fill="black" />
<rect shape-rendering="optimizeSpeed"  x="280" y="322" width="14" height="14" fill="black" />
<rect shape-rendering="optimizeSpeed"  x="336" y="322" width="14" height="14" fill="black" />
<rect shape-rendering="optimizeSpeed"  x="350" y="322" width="14" height="14" fill="black" />
<rect shape-rendering="optimizeSpeed"  x="0" y="336" width="14" height="14" fill="black" />
<rect shape-rendering="optimizeSpeed"  x="28" y="336" width="14" height="14" fill="black" />
<rect shape-rendering="optimizeSpeed"  x="42" y="336" width="14" height="14" fill="black" />
<rect shape-rendering="optimizeSpeed"  x="56" y="336" width="14" height="14" fill="black" />
<rect shape-rendering="optimizeSpeed"  x="84" y="336" width="14" height="14" fill="black" />
<rect shape-rendering="optimizeSpeed"  x="112" y="336" width="14" height="14" fill="black" />
<rect shape-rendering="optimizeSpeed"  x="126" y="336" width="14" height="14" fill="black" />
<rect shape-rendering="optimizeSpeed"  x="168" y="336" width="14" height="14" fill="black" />
<rect shape-rendering="optimizeSpeed"  x="196" y="336" width="14" height="14" fill="black" />
<rect shape-rendering="optimizeSpeed"  x="210" y="336" width="14" height="14" fill="black" />
<rect shape-rendering="optimizeSpeed"  x="238" y="336" width="14" height="14" fill="black" />
<rect shape-rendering="optimizeSpeed"  x="280" y="336" width="14" height="14" fill="black" />
<rect shape-rendering="optimizeSpeed"  x="294" y="336" width="14" height="14" fill="black" />
<rect shape-rendering="optimizeSpeed"  x="308" y="336" width="14" height="14" fill="black" />
<rect shape-rendering="optimizeSpeed"  x="322" y="336" width="14" height="14" fill="black" />
<rect shape-rendering="optimizeSpeed"  x="336" y="336" width="14" height="14" fill="black" />
<rect shape-rendering="optimizeSpeed"  x="350" y="336" width="14" height="14" fill="black" />
<rect shape-rendering="optimizeSpeed"  x="364" y="336" width="14" height="14" fill="black" />
<rect shape-rendering="optimizeSpeed"  x="378" y="336" width="14" height="14" fill="black" />
<rect shape-rendering="optimizeSpeed"  x="0" y="350" width="14" height="14" fill="black" />
<rect shape-rendering="optimizeSpeed"  x="28" y="350" width="14" height="14" fill="black" />
<rect shape-rendering="optimizeSpeed"  x="42" y="350" width="14" height="14" fill="black" />
<rect shape-rendering="optimizeSpeed"  x="56" y="350" width="14" height="14" fill="black" />
<rect shape-rendering="optimizeSpeed"  x="84" y="350" width="14" height="14" fill="black" />
<rect shape-rendering="optimizeSpeed"  x="112" y="350" width="14" height="14" fill="black" />
<rect shape-rendering="optimizeSpeed"  x="224" y="350" width="14" height="14" fill="black" />
<rect shape-rendering="optimizeSpeed"  x="238" y="350" width="14" height="14" fill="black" />
<rect shape-rendering="optimizeSpeed"  x="252" y="350" width="14" height="14" fill="black" />
<rect shape-rendering="optimizeSpeed"  x="364" y="350" width="14" height="14" fill="black" />
<rect shape-rendering="optimizeSpeed"  x="378" y="350" width="14" height="14" fill="black" />
<rect shape-rendering="optimizeSpeed"  x="392" y="350" width="14" height="14" fill="black" />
<rect shape-rendering="optimizeSpeed"  x="0" y="364" width="14" height="14" fill="black" />
<rect shape-rendering="optimizeSpeed"  x="28" y="364" width="14" height="14" fill="black" />
<rect shape-rendering="optimizeSpeed"  x="42" y="364" width="14" height="14" fill="black" />
<rect shape-rendering="optimizeSpeed"  x="56" y="364" width="14" height="14" fill="black" />
<rect shape-rendering="optimizeSpeed"  x="84" y="364" width="14" height="14" fill="black" />
<rect shape-rendering="optimizeSpeed"  x="112" y="364" width="14" height="14" fill="black" />
<rect shape-rendering="optimizeSpeed"  x="126" y="364" width="14" height="14" fill="black" />
<rect shape-rendering="optimizeSpeed"  x="154" y="364" width="14" height="14" fill="black" />
<rect shape-rendering="optimizeSpeed"  x="168" y="364" width="14" height="14" fill="black" />
<rect shape-rendering="optimizeSpeed"  x="210" y="364" width="14" height="14" fill="black" />
<rect shape-rendering="optimizeSpeed"  x="238" y="364" width="14" height="14" fill="black" />
<rect shape-rendering="optimizeSpeed"  x="266" y="364" width="14" height="14" fill="black" />
<rect shape-rendering="optimizeSpeed"  x="280" y="364" width="14" height="14" fill="black" />
<rect shape-rendering="optimizeSpeed"  x="294" y="364" width="14" height="14" fill="black" />
<rect shape-rendering="optimizeSpeed"  x="336" y="364" width="14" height="14" fill="black" />
<rect shape-rendering="optimizeSpeed"  x="378" y="364" width="14" height="14" fill="black" />
<rect shape-rendering="optimizeSpeed"  x="0" y="378" width="14" height="14" fill="black" />
<rect shape-rendering="optimizeSpeed"  x="84" y="378" width="14" height="14" fill="black" />
<rect shape-rendering="optimizeSpeed"  x="112" y="378" width="14" height="14" fill="black" />
<rect shape-rendering="optimizeSpeed"  x="140" y="378" width="14" height="14" fill="black" />
<rect shape-rendering="optimizeSpeed"  x="154" y="378" width="14" height="14" fill="black" />
<rect shape-rendering="optimizeSpeed"  x="196" y="378" width="14" height="14" fill="black" />
<rect shape-rendering="optimizeSpeed"  x="210" y="378" width="14" height="14" fill="black" />
<rect shape-rendering="optimizeSpeed"  x="224" y="378" width="14" height="14" fill="black" />
<rect shape-rendering="optimizeSpeed"  x="280" y="378" width="14" height="14" fill="black" />
<rect shape-rendering="optimizeSpeed"  x="294" y="378" width="14" height="14" fill="black" />
<rect shape-rendering="optimizeSpeed"  x="336" y="378" width="14" height="14" fill="black" />
<rect shape-rendering="optimizeSpeed"  x="350" y="378" width="14" height="14" fill="black" />
<rect shape-rendering="optimizeSpeed"  x="378" y="378" width="14" height="14" fill="black" />
<rect shape-rendering="optimizeSpeed"  x="0" y="392" width="14" height="14" fill="black" />
<rect shape-rendering="optimizeSpeed"  x="14" y="392" width="14" height="14" fill="black" />
<rect shape-rendering="optimizeSpeed"  x="28" y="392" width="14" height="14" fill="black" />
<rect shape-rendering="optimizeSpeed"  x="42" y="392" width="14" height="14" fill="black" />
<rect shape-rendering="optimizeSpeed"  x="56" y="392" width="14" height="14" fill="black" />
<rect shape-rendering="optimizeSpeed"  x="70" y="392" width="14" height="14" fill="black" />
<rect shape-rendering="optimizeSpeed"  x="84" y="392" width="14" height="14" fill="black" />
<rect shape-rendering="optimizeSpeed"  x="112" y="392" width="14" height="14" fill="black" />
<rect shape-rendering="optimizeSpeed"  x="154" y="392" width="14" height="14" fill="black" />
<rect shape-rendering="optimizeSpeed"  x="238" y="392" width="14" height="14" fill="black" />
<rect shape-rendering="optimizeSpeed"  x="266" y="392" width="14" height="14" fill="black" />
<rect shape-rendering="optimizeSpeed"  x="294" y="392" width="14" height="14" fill="black" />
<rect shape-rendering="optimizeSpeed"  x="336" y="392" width="14" height="14" fill="black" />
<rect shape-rendering="optimizeSpeed"  x="350" y="392" width="14" height="14" fill="black" />
<rect shape-rendering="optimizeSpeed"  x="364" y="392" width="14" height="14" fill="black" /></svg>