<svg width="364" height="88" viewBox="0 0 364 88" fill="none" xmlns="http://www.w3.org/2000/svg">
<path d="M140.505 67.664V23.312H171.179V31.696H150.729V40.4H168.885V48.592H150.729V59.28H172.686V67.664H140.505Z" fill="#322153"/>
<path d="M177.19 50.832C177.19 48.4 177.584 46.1173 178.37 43.984C179.2 41.808 180.38 39.9307 181.909 38.352C183.439 36.7307 185.296 35.4507 187.481 34.512C189.665 33.5733 192.156 33.104 194.952 33.104C196.787 33.104 198.47 33.2747 199.999 33.616C201.528 33.9147 203.014 34.3627 204.456 34.96L202.424 42.576C201.507 42.2347 200.502 41.936 199.409 41.68C198.317 41.424 197.093 41.296 195.739 41.296C192.855 41.296 190.692 42.1707 189.25 43.92C187.852 45.6693 187.153 47.9733 187.153 50.832C187.153 53.8613 187.808 56.208 189.119 57.872C190.474 59.536 192.811 60.368 196.132 60.368C197.312 60.368 198.579 60.2613 199.934 60.048C201.288 59.8347 202.533 59.4933 203.669 59.024L205.046 66.832C203.91 67.3013 202.49 67.7067 200.786 68.048C199.081 68.3893 197.203 68.56 195.149 68.56C192.003 68.56 189.294 68.112 187.022 67.216C184.75 66.2773 182.871 65.0187 181.385 63.44C179.943 61.8613 178.873 60.0053 178.174 57.872C177.518 55.696 177.19 53.3493 177.19 50.832Z" fill="#322153"/>
<path d="M242.182 50.768C242.182 53.4133 241.789 55.8453 241.003 58.064C240.216 60.24 239.08 62.1173 237.595 63.696C236.109 65.232 234.317 66.4267 232.22 67.28C230.166 68.1333 227.851 68.56 225.273 68.56C222.738 68.56 220.423 68.1333 218.325 67.28C216.272 66.4267 214.502 65.232 213.016 63.696C211.531 62.1173 210.373 60.24 209.543 58.064C208.712 55.8453 208.297 53.4133 208.297 50.768C208.297 48.1227 208.712 45.712 209.543 43.536C210.416 41.36 211.596 39.504 213.082 37.968C214.611 36.432 216.403 35.2373 218.456 34.384C220.554 33.5307 222.826 33.104 225.273 33.104C227.763 33.104 230.035 33.5307 232.089 34.384C234.186 35.2373 235.978 36.432 237.463 37.968C238.949 39.504 240.107 41.36 240.937 43.536C241.767 45.712 242.182 48.1227 242.182 50.768ZM232.22 50.768C232.22 47.824 231.608 45.52 230.385 43.856C229.205 42.1493 227.501 41.296 225.273 41.296C223.044 41.296 221.318 42.1493 220.095 43.856C218.871 45.52 218.26 47.824 218.26 50.768C218.26 53.712 218.871 56.0587 220.095 57.808C221.318 59.5147 223.044 60.368 225.273 60.368C227.501 60.368 229.205 59.5147 230.385 57.808C231.608 56.0587 232.22 53.712 232.22 50.768Z" fill="#322153"/>
<path d="M263.511 68.304C260.671 68.2613 258.355 67.9627 256.564 67.408C254.816 66.8533 253.418 66.0853 252.369 65.104C251.364 64.08 250.665 62.864 250.272 61.456C249.922 60.0053 249.747 58.384 249.747 56.592V19.536L259.513 18V54.672C259.513 55.5253 259.579 56.2933 259.71 56.976C259.841 57.6587 260.081 58.2347 260.431 58.704C260.824 59.1733 261.37 59.5573 262.069 59.856C262.768 60.1547 263.708 60.3467 264.888 60.432L263.511 68.304Z" fill="#322153"/>
<path d="M268.847 51.088C268.847 48.1013 269.306 45.4987 270.223 43.28C271.184 41.0187 272.43 39.1413 273.959 37.648C275.488 36.1547 277.236 35.024 279.202 34.256C281.212 33.488 283.266 33.104 285.363 33.104C290.257 33.104 294.124 34.576 296.964 37.52C299.804 40.4213 301.224 44.7093 301.224 50.384C301.224 50.9387 301.203 51.5573 301.159 52.24C301.115 52.88 301.072 53.456 301.028 53.968H278.875C279.093 55.9307 280.033 57.488 281.693 58.64C283.353 59.792 285.582 60.368 288.378 60.368C290.17 60.368 291.918 60.2187 293.622 59.92C295.369 59.5787 296.789 59.1733 297.882 58.704L299.193 66.448C298.668 66.704 297.969 66.96 297.095 67.216C296.221 67.472 295.238 67.6853 294.146 67.856C293.097 68.0693 291.961 68.24 290.738 68.368C289.514 68.496 288.291 68.56 287.067 68.56C283.965 68.56 281.256 68.112 278.94 67.216C276.668 66.32 274.767 65.104 273.238 63.568C271.752 61.9893 270.638 60.1333 269.895 58C269.196 55.8667 268.847 53.5627 268.847 51.088ZM291.786 47.44C291.743 46.6293 291.59 45.84 291.328 45.072C291.109 44.304 290.738 43.6213 290.213 43.024C289.733 42.4267 289.099 41.936 288.313 41.552C287.57 41.168 286.63 40.976 285.494 40.976C284.402 40.976 283.463 41.168 282.676 41.552C281.89 41.8933 281.234 42.3627 280.71 42.96C280.186 43.5573 279.77 44.2613 279.465 45.072C279.202 45.84 279.006 46.6293 278.875 47.44H291.786Z" fill="#322153"/>
<path d="M308.433 25.616L318.199 24.08V34H329.931V41.936H318.199V53.776C318.199 55.7813 318.548 57.3813 319.247 58.576C319.99 59.7707 321.454 60.368 323.639 60.368C324.687 60.368 325.758 60.2827 326.85 60.112C327.986 59.8987 329.013 59.6213 329.931 59.28L331.307 66.704C330.127 67.1733 328.817 67.5787 327.375 67.92C325.933 68.2613 324.163 68.432 322.066 68.432C319.4 68.432 317.194 68.0907 315.446 67.408C313.698 66.6827 312.3 65.7013 311.251 64.464C310.203 63.184 309.46 61.648 309.023 59.856C308.63 58.064 308.433 56.08 308.433 53.904V25.616Z" fill="#322153"/>
<path d="M349.777 61.008C350.739 61.008 351.656 60.9867 352.53 60.944C353.404 60.9013 354.103 60.8373 354.627 60.752V53.52C354.234 53.4347 353.644 53.3493 352.858 53.264C352.071 53.1787 351.35 53.136 350.695 53.136C349.777 53.136 348.903 53.2 348.073 53.328C347.287 53.4133 346.588 53.6053 345.976 53.904C345.364 54.2027 344.883 54.608 344.534 55.12C344.184 55.632 344.01 56.272 344.01 57.04C344.01 58.5333 344.512 59.5787 345.517 60.176C346.566 60.7307 347.986 61.008 349.777 61.008ZM348.991 33.104C351.875 33.104 354.278 33.424 356.2 34.064C358.123 34.704 359.652 35.6213 360.788 36.816C361.968 38.0107 362.798 39.4613 363.279 41.168C363.76 42.8747 364 44.7733 364 46.864V66.704C362.602 67.0027 360.657 67.344 358.167 67.728C355.676 68.1547 352.661 68.368 349.122 68.368C346.893 68.368 344.862 68.176 343.026 67.792C341.235 67.408 339.684 66.7893 338.373 65.936C337.062 65.04 336.057 63.888 335.358 62.48C334.659 61.072 334.309 59.344 334.309 57.296C334.309 55.3333 334.703 53.6693 335.489 52.304C336.319 50.9387 337.412 49.8507 338.766 49.04C340.121 48.2293 341.672 47.6533 343.42 47.312C345.167 46.928 346.981 46.736 348.86 46.736C350.127 46.736 351.241 46.8 352.202 46.928C353.207 47.0133 354.016 47.1413 354.627 47.312V46.416C354.627 44.7947 354.125 43.4933 353.12 42.512C352.115 41.5307 350.367 41.04 347.877 41.04C346.216 41.04 344.578 41.168 342.961 41.424C341.344 41.6373 339.946 41.9573 338.766 42.384L337.521 34.704C338.089 34.5333 338.788 34.3627 339.618 34.192C340.492 33.9787 341.432 33.808 342.437 33.68C343.442 33.5093 344.49 33.3813 345.583 33.296C346.719 33.168 347.855 33.104 348.991 33.104Z" fill="#322153"/>
<path d="M9.07044 30.9916L31.2884 24.9075L37.3396 47.2414L32.2018 44.2882L22.2924 61.5421H37.543L27.4835 71.7373L39.2688 83.4868H19.3895C12.2959 83.4868 6.20694 79.9525 2.66012 73.7782C-0.886706 67.6023 -0.886706 60.5352 2.66012 54.3593L14.3414 34.021L9.07044 30.9916Z" fill="#34CB79"/>
<path d="M49.7617 87.9999L33.4111 71.6993L49.6271 55.2648L49.6523 61.5423H67.782L59.9714 47.9439L74.7941 51.8702L78.3001 38.4933L87.4113 54.3581C90.9581 60.534 90.9581 67.6011 87.4113 73.777C83.8644 79.9515 77.7755 83.4856 70.6819 83.4856H49.742L49.7603 87.9987L49.7617 87.9999Z" fill="#34CB79"/>
<path d="M61.7674 9.70842L71.7034 27.0075L77.1471 23.8174L71.2796 46.2008L49.0125 40.3027L53.9288 37.4215L45.038 21.9431L38.5363 33.2624L34.8407 19.6274L20.3281 23.6017L28.3085 9.70865C31.8554 3.53273 37.9443 0 45.038 0C52.1316 0 58.2219 3.53389 61.7674 9.70842Z" fill="#34CB79"/>
</svg>
