<?xml version="1.0" standalone="no"?>
<!DOCTYPE svg PUBLIC "-//W3C//DTD SVG 20010904//EN"
 "http://www.w3.org/TR/2001/REC-SVG-20010904/DTD/svg10.dtd">
<svg version="1.0" xmlns="http://www.w3.org/2000/svg"
 width="534.000000pt" height="534.000000pt" viewBox="0 0 534.000000 534.000000"
 preserveAspectRatio="xMidYMid meet">
<metadata>
Created by potrace 1.11, written by Peter Selinger 2001-2013
</metadata>
<g transform="translate(0.000000,534.000000) scale(0.100000,-0.100000)"
fill="#000000" stroke="none">
<path d="M2555 5332 c-63 -6 -192 -35 -264 -59 -258 -87 -481 -286 -635 -565
-31 -58 -46 -85 -197 -353 -64 -115 -147 -262 -182 -325 -36 -63 -64 -116 -63
-117 2 -3 88 20 291 77 61 17 117 33 125 35 8 2 49 14 90 25 41 12 82 23 90
25 8 2 68 19 133 38 l119 34 9 -24 c5 -14 32 -111 59 -216 28 -106 59 -223 69
-262 10 -38 33 -124 51 -190 17 -66 33 -122 35 -123 5 -5 21 22 107 178 42 74
84 151 95 170 67 120 99 177 108 192 6 9 23 42 40 72 16 31 32 56 35 56 4 0
14 -15 23 -32 16 -32 34 -64 121 -218 24 -41 58 -102 76 -135 45 -81 55 -100
186 -332 63 -111 114 -205 114 -210 0 -5 -63 -46 -140 -92 -77 -46 -139 -86
-136 -88 2 -2 28 -10 58 -17 29 -7 139 -37 243 -65 105 -28 233 -63 285 -77
52 -14 106 -29 120 -34 50 -17 602 -162 604 -158 1 1 26 93 54 203 28 110 80
315 116 455 121 473 174 685 172 687 -1 1 -71 -40 -156 -91 -115 -70 -158 -91
-166 -82 -6 6 -28 42 -48 79 -20 37 -46 83 -56 102 -11 19 -28 50 -38 68 -89
155 -162 289 -162 294 0 4 -6 14 -14 22 -7 9 -30 48 -51 86 -21 39 -43 79 -50
90 -7 11 -26 45 -43 75 -181 332 -269 453 -418 570 -139 110 -330 194 -500
220 -76 12 -246 19 -309 12z"/>
<path d="M1735 3794 c-60 -18 -348 -99 -640 -180 -291 -81 -534 -150 -538
-154 -6 -6 104 -80 118 -80 3 0 165 -98 173 -105 3 -3 -44 -88 -223 -405 -48
-85 -100 -177 -115 -205 -15 -27 -55 -99 -89 -158 -33 -60 -61 -110 -61 -111
0 -2 -23 -43 -52 -92 -252 -434 -309 -601 -302 -881 13 -486 324 -925 766
-1082 175 -61 207 -63 906 -65 349 0 635 2 637 5 4 5 -118 132 -511 531 l-174
177 42 43 c52 53 449 466 507 526 22 24 41 45 41 46 0 1 -202 2 -449 2 -247
-1 -448 1 -446 4 1 3 20 37 42 75 22 39 53 93 68 120 15 28 55 100 90 160 34
61 75 135 92 165 37 67 112 200 143 255 13 22 50 88 83 148 32 59 63 109 66
112 4 2 72 -34 151 -81 79 -46 145 -83 147 -80 4 3 -45 194 -52 207 -2 3 -7
20 -10 39 -3 18 -25 105 -49 194 -50 185 -58 215 -62 236 -2 8 -17 65 -34 125
-17 61 -33 119 -35 130 -15 68 -107 401 -113 406 -4 3 -56 -9 -117 -27z"/>
<path d="M4636 2989 c-4 -12 -13 -47 -22 -84 -1 -5 -12 -48 -24 -95 -12 -47
-23 -92 -25 -100 -2 -8 -24 -96 -50 -195 -26 -99 -48 -184 -50 -190 -2 -10
-22 -84 -31 -116 -4 -13 -41 -5 -257 53 -138 38 -292 79 -342 93 -49 13 -130
35 -180 49 -49 13 -91 23 -93 21 -2 -2 22 -47 52 -100 31 -53 56 -98 56 -100
0 -2 14 -28 31 -57 28 -48 179 -315 271 -482 21 -38 38 -72 38 -75 0 -5 -1031
-7 -1061 -2 -4 1 -6 84 -5 186 0 102 -1 185 -4 185 -3 0 -82 -79 -175 -176
-94 -98 -201 -209 -240 -249 -38 -40 -158 -164 -265 -275 -107 -112 -214 -222
-237 -245 l-43 -42 268 -273 c147 -150 365 -373 484 -494 l217 -221 1 136 0
136 673 0 c572 1 686 3 763 17 226 40 425 142 584 298 77 76 98 102 162 198
101 154 172 339 195 510 13 100 7 287 -11 375 -28 138 -81 271 -166 420 -13
22 -34 60 -48 85 -13 25 -32 59 -42 75 -10 17 -30 53 -45 80 -15 28 -67 120
-115 205 -48 85 -126 224 -173 309 -48 85 -88 148 -91 140z"/>
</g>
</svg>
