<svg width="182" height="44" viewBox="0 0 182 44" fill="none" xmlns="http://www.w3.org/2000/svg">
<path d="M70.2524 33.832V11.656H85.5893V15.848H75.3647V20.2H84.4423V24.296H75.3647V29.64H86.343V33.832H70.2524Z" fill="#322153"/>
<path d="M88.5952 25.416C88.5952 24.2 88.7918 23.0587 89.1851 21.992C89.6002 20.904 90.1901 19.9653 90.9547 19.176C91.7194 18.3653 92.6479 17.7253 93.7403 17.256C94.8326 16.7867 96.0779 16.552 97.4762 16.552C98.3937 16.552 99.2349 16.6373 99.9995 16.808C100.764 16.9573 101.507 17.1813 102.228 17.48L101.212 21.288C100.753 21.1173 100.251 20.968 99.7046 20.84C99.1584 20.712 98.5467 20.648 97.8694 20.648C96.4275 20.648 95.346 21.0853 94.6251 21.96C93.926 22.8347 93.5764 23.9867 93.5764 25.416C93.5764 26.9307 93.9041 28.104 94.5595 28.936C95.2368 29.768 96.4056 30.184 98.066 30.184C98.6559 30.184 99.2895 30.1307 99.9668 30.024C100.644 29.9173 101.267 29.7467 101.835 29.512L102.523 33.416C101.955 33.6507 101.245 33.8533 100.393 34.024C99.5407 34.1947 98.6013 34.28 97.5745 34.28C96.0015 34.28 94.6469 34.056 93.5109 33.608C92.3748 33.1387 91.4354 32.5093 90.6926 31.72C89.9716 30.9307 89.4363 30.0027 89.0868 28.936C88.7591 27.848 88.5952 26.6747 88.5952 25.416Z" fill="#322153"/>
<path d="M121.091 25.384C121.091 26.7067 120.895 27.9227 120.501 29.032C120.108 30.12 119.54 31.0587 118.797 31.848C118.054 32.616 117.159 33.2133 116.11 33.64C115.083 34.0667 113.925 34.28 112.636 34.28C111.369 34.28 110.211 34.0667 109.163 33.64C108.136 33.2133 107.251 32.616 106.508 31.848C105.765 31.0587 105.186 30.12 104.771 29.032C104.356 27.9227 104.149 26.7067 104.149 25.384C104.149 24.0613 104.356 22.856 104.771 21.768C105.208 20.68 105.798 19.752 106.541 18.984C107.306 18.216 108.201 17.6187 109.228 17.192C110.277 16.7653 111.413 16.552 112.636 16.552C113.882 16.552 115.018 16.7653 116.044 17.192C117.093 17.6187 117.989 18.216 118.732 18.984C119.475 19.752 120.053 20.68 120.469 21.768C120.884 22.856 121.091 24.0613 121.091 25.384ZM116.11 25.384C116.11 23.912 115.804 22.76 115.192 21.928C114.603 21.0747 113.751 20.648 112.636 20.648C111.522 20.648 110.659 21.0747 110.047 21.928C109.436 22.76 109.13 23.912 109.13 25.384C109.13 26.856 109.436 28.0293 110.047 28.904C110.659 29.7573 111.522 30.184 112.636 30.184C113.751 30.184 114.603 29.7573 115.192 28.904C115.804 28.0293 116.11 26.856 116.11 25.384Z" fill="#322153"/>
<path d="M131.756 34.152C130.336 34.1307 129.178 33.9813 128.282 33.704C127.408 33.4267 126.709 33.0427 126.185 32.552C125.682 32.04 125.333 31.432 125.136 30.728C124.961 30.0027 124.874 29.192 124.874 28.296V9.768L129.757 9V27.336C129.757 27.7627 129.789 28.1467 129.855 28.488C129.92 28.8293 130.041 29.1173 130.215 29.352C130.412 29.5867 130.685 29.7787 131.035 29.928C131.384 30.0773 131.854 30.1733 132.444 30.216L131.756 34.152Z" fill="#322153"/>
<path d="M134.423 25.544C134.423 24.0507 134.653 22.7493 135.112 21.64C135.592 20.5093 136.215 19.5707 136.98 18.824C137.744 18.0773 138.618 17.512 139.601 17.128C140.606 16.744 141.633 16.552 142.682 16.552C145.129 16.552 147.062 17.288 148.482 18.76C149.902 20.2107 150.612 22.3547 150.612 25.192C150.612 25.4693 150.601 25.7787 150.579 26.12C150.558 26.44 150.536 26.728 150.514 26.984H139.437C139.547 27.9653 140.016 28.744 140.846 29.32C141.677 29.896 142.791 30.184 144.189 30.184C145.085 30.184 145.959 30.1093 146.811 29.96C147.685 29.7893 148.395 29.5867 148.941 29.352L149.596 33.224C149.334 33.352 148.985 33.48 148.548 33.608C148.111 33.736 147.619 33.8427 147.073 33.928C146.549 34.0347 145.981 34.12 145.369 34.184C144.757 34.248 144.145 34.28 143.534 34.28C141.983 34.28 140.628 34.056 139.47 33.608C138.334 33.16 137.384 32.552 136.619 31.784C135.876 30.9947 135.319 30.0667 134.948 29C134.598 27.9333 134.423 26.7813 134.423 25.544ZM145.893 23.72C145.871 23.3147 145.795 22.92 145.664 22.536C145.555 22.152 145.369 21.8107 145.107 21.512C144.866 21.2133 144.55 20.968 144.156 20.776C143.785 20.584 143.315 20.488 142.747 20.488C142.201 20.488 141.731 20.584 141.338 20.776C140.945 20.9467 140.617 21.1813 140.355 21.48C140.093 21.7787 139.885 22.1307 139.732 22.536C139.601 22.92 139.503 23.3147 139.437 23.72H145.893Z" fill="#322153"/>
<path d="M154.217 12.808L159.099 12.04V17H164.965V20.968H159.099V26.888C159.099 27.8907 159.274 28.6907 159.624 29.288C159.995 29.8853 160.727 30.184 161.819 30.184C162.344 30.184 162.879 30.1413 163.425 30.056C163.993 29.9493 164.507 29.8107 164.965 29.64L165.654 33.352C165.064 33.5867 164.408 33.7893 163.687 33.96C162.966 34.1307 162.082 34.216 161.033 34.216C159.7 34.216 158.597 34.0453 157.723 33.704C156.849 33.3413 156.15 32.8507 155.626 32.232C155.101 31.592 154.73 30.824 154.511 29.928C154.315 29.032 154.217 28.04 154.217 26.952V12.808Z" fill="#322153"/>
<path d="M174.889 30.504C175.369 30.504 175.828 30.4933 176.265 30.472C176.702 30.4507 177.051 30.4187 177.314 30.376V26.76C177.117 26.7173 176.822 26.6747 176.429 26.632C176.036 26.5893 175.675 26.568 175.347 26.568C174.889 26.568 174.452 26.6 174.037 26.664C173.643 26.7067 173.294 26.8027 172.988 26.952C172.682 27.1013 172.442 27.304 172.267 27.56C172.092 27.816 172.005 28.136 172.005 28.52C172.005 29.2667 172.256 29.7893 172.758 30.088C173.283 30.3653 173.993 30.504 174.889 30.504ZM174.495 16.552C175.937 16.552 177.139 16.712 178.1 17.032C179.061 17.352 179.826 17.8107 180.394 18.408C180.984 19.0053 181.399 19.7307 181.639 20.584C181.88 21.4373 182 22.3867 182 23.432V33.352C181.301 33.5013 180.329 33.672 179.083 33.864C177.838 34.0773 176.331 34.184 174.561 34.184C173.447 34.184 172.431 34.088 171.513 33.896C170.617 33.704 169.842 33.3947 169.186 32.968C168.531 32.52 168.029 31.944 167.679 31.24C167.329 30.536 167.155 29.672 167.155 28.648C167.155 27.6667 167.351 26.8347 167.745 26.152C168.16 25.4693 168.706 24.9253 169.383 24.52C170.06 24.1147 170.836 23.8267 171.71 23.656C172.584 23.464 173.49 23.368 174.43 23.368C175.063 23.368 175.62 23.4 176.101 23.464C176.604 23.5067 177.008 23.5707 177.314 23.656V23.208C177.314 22.3973 177.062 21.7467 176.56 21.256C176.057 20.7653 175.184 20.52 173.938 20.52C173.108 20.52 172.289 20.584 171.48 20.712C170.672 20.8187 169.973 20.9787 169.383 21.192L168.76 17.352C169.044 17.2667 169.394 17.1813 169.809 17.096C170.246 16.9893 170.716 16.904 171.218 16.84C171.721 16.7547 172.245 16.6907 172.791 16.648C173.359 16.584 173.927 16.552 174.495 16.552Z" fill="#322153"/>
<path d="M4.53522 15.4958L15.6442 12.4537L18.6698 23.6207L16.1009 22.1441L11.1462 30.7711H18.7715L13.7417 35.8687L19.6344 41.7434H9.69476C6.14794 41.7434 3.10347 39.9762 1.33006 36.8891C-0.443353 33.8011 -0.443353 30.2676 1.33006 27.1796L7.17072 17.0105L4.53522 15.4958Z" fill="#34CB79"/>
<path d="M24.8808 44L16.7056 35.8497L24.8135 27.6324L24.8262 30.7712H33.891L29.9857 23.9719L37.397 25.9351L39.15 19.2466L43.7056 27.179C45.479 30.267 45.479 33.8005 43.7056 36.8885C41.9322 39.9758 38.8877 41.7428 35.3409 41.7428H24.871L24.8802 43.9994L24.8808 44Z" fill="#34CB79"/>
<path d="M30.8837 4.85421L35.8517 13.5038L38.5735 11.9087L35.6398 23.1004L24.5063 20.1514L26.9644 18.7107L22.519 10.9716L19.2682 16.6312L17.4204 9.8137L10.1641 11.8009L14.1543 4.85432C15.9277 1.76636 18.9722 0 22.519 0C26.0658 0 29.111 1.76694 30.8837 4.85421Z" fill="#34CB79"/>
</svg>
