<svg width="784" height="194" viewBox="0 0 784 194" fill="none" xmlns="http://www.w3.org/2000/svg">
<path d="M302.626 149.168V51.3924H368.692V69.8753H324.648V89.0636H363.752V107.123H324.648V130.685H371.939V149.168H302.626Z" fill="#322153"/>
<path d="M381.641 112.061C381.641 106.7 382.488 101.668 384.182 96.9647C385.97 92.1676 388.511 88.029 391.805 84.5487C395.099 80.9744 399.099 78.1526 403.805 76.0833C408.51 74.0139 413.874 72.9793 419.898 72.9793C423.85 72.9793 427.474 73.3555 430.767 74.108C434.061 74.7664 437.261 75.7541 440.367 77.0709L435.991 93.8607C434.014 93.1082 431.85 92.4498 429.497 91.8855C427.144 91.3211 424.509 91.0389 421.592 91.0389C415.38 91.0389 410.722 92.9672 407.616 96.8236C404.604 100.68 403.099 105.759 403.099 112.061C403.099 118.74 404.51 123.913 407.334 127.581C410.251 131.25 415.286 133.084 422.439 133.084C424.98 133.084 427.709 132.849 430.626 132.379C433.544 131.908 436.226 131.156 438.673 130.121L441.637 147.334C439.19 148.369 436.132 149.262 432.461 150.015C428.791 150.767 424.744 151.144 420.321 151.144C413.545 151.144 407.71 150.156 402.816 148.181C397.923 146.111 393.876 143.337 390.676 139.856C387.57 136.376 385.265 132.284 383.759 127.581C382.347 122.784 381.641 117.611 381.641 112.061Z" fill="#322153"/>
<path d="M521.624 111.92C521.624 117.752 520.777 123.114 519.083 128.005C517.389 132.802 514.942 136.941 511.742 140.421C508.543 143.807 504.684 146.441 500.167 148.322C495.743 150.203 490.755 151.144 485.203 151.144C479.744 151.144 474.757 150.203 470.239 148.322C465.816 146.441 462.004 143.807 458.805 140.421C455.605 136.941 453.111 132.802 451.323 128.005C449.535 123.114 448.641 117.752 448.641 111.92C448.641 106.089 449.535 100.774 451.323 95.9771C453.205 91.18 455.746 87.0884 458.946 83.7022C462.24 80.316 466.098 77.6823 470.522 75.8011C475.039 73.9199 479.933 72.9793 485.203 72.9793C490.567 72.9793 495.461 73.9199 499.884 75.8011C504.402 77.6823 508.26 80.316 511.46 83.7022C514.66 87.0884 517.154 91.18 518.942 95.9771C520.73 100.774 521.624 106.089 521.624 111.92ZM500.167 111.92C500.167 105.43 498.849 100.351 496.214 96.6826C493.673 92.9201 490.003 91.0389 485.203 91.0389C480.403 91.0389 476.686 92.9201 474.051 96.6826C471.416 100.351 470.098 105.43 470.098 111.92C470.098 118.411 471.416 123.584 474.051 127.44C476.686 131.203 480.403 133.084 485.203 133.084C490.003 133.084 493.673 131.203 496.214 127.44C498.849 123.584 500.167 118.411 500.167 111.92Z" fill="#322153"/>
<path d="M567.563 150.579C561.446 150.485 556.458 149.827 552.599 148.604C548.835 147.381 545.823 145.688 543.565 143.525C541.4 141.267 539.894 138.587 539.047 135.483C538.294 132.284 537.918 128.71 537.918 124.76V43.068L558.952 39.6818V120.527C558.952 122.408 559.093 124.101 559.375 125.606C559.658 127.111 560.175 128.381 560.928 129.416C561.775 130.45 562.951 131.297 564.457 131.955C565.963 132.614 567.986 133.037 570.527 133.225L567.563 150.579Z" fill="#322153"/>
<path d="M579.055 112.626C579.055 106.042 580.043 100.304 582.019 95.4127C584.09 90.4275 586.772 86.2889 590.066 82.9967C593.36 79.7046 597.124 77.212 601.359 75.5189C605.688 73.8258 610.112 72.9793 614.629 72.9793C625.169 72.9793 633.498 76.2244 639.616 82.7145C645.733 89.1107 648.791 98.5638 648.791 111.074C648.791 112.297 648.744 113.66 648.65 115.165C648.556 116.576 648.462 117.846 648.368 118.975H600.653C601.124 123.302 603.147 126.735 606.724 129.275C610.3 131.814 615.1 133.084 621.123 133.084C624.981 133.084 628.746 132.755 632.416 132.096C636.181 131.344 639.239 130.45 641.592 129.416L644.415 146.488C643.286 147.052 641.78 147.616 639.898 148.181C638.016 148.745 635.898 149.215 633.545 149.592C631.287 150.062 628.84 150.438 626.205 150.72C623.57 151.003 620.934 151.144 618.299 151.144C611.617 151.144 605.783 150.156 600.795 148.181C595.901 146.205 591.807 143.525 588.513 140.139C585.313 136.658 582.913 132.567 581.314 127.864C579.808 123.161 579.055 118.081 579.055 112.626ZM628.463 104.584C628.369 102.796 628.04 101.056 627.475 99.3633C627.005 97.6702 626.205 96.1652 625.075 94.8484C624.04 93.5315 622.676 92.4498 620.982 91.6033C619.382 90.7567 617.358 90.3335 614.911 90.3335C612.559 90.3335 610.535 90.7567 608.841 91.6033C607.147 92.3558 605.735 93.3904 604.606 94.7073C603.477 96.0241 602.583 97.5761 601.924 99.3633C601.359 101.056 600.936 102.796 600.653 104.584H628.463Z" fill="#322153"/>
<path d="M664.318 56.4716L685.352 53.0854V74.9545H710.621V92.4498H685.352V118.552C685.352 122.972 686.105 126.5 687.61 129.133C689.21 131.767 692.363 133.084 697.068 133.084C699.327 133.084 701.633 132.896 703.986 132.52C706.433 132.049 708.644 131.438 710.621 130.685L713.585 147.052C711.044 148.087 708.221 148.98 705.115 149.733C702.009 150.485 698.198 150.861 693.68 150.861C687.94 150.861 683.187 150.109 679.423 148.604C675.658 147.005 672.647 144.842 670.388 142.114C668.129 139.292 666.529 135.906 665.588 131.955C664.741 128.005 664.318 123.631 664.318 118.834V56.4716Z" fill="#322153"/>
<path d="M753.367 134.495C755.437 134.495 757.413 134.448 759.296 134.354C761.178 134.26 762.684 134.119 763.813 133.931V117.987C762.966 117.799 761.695 117.611 760.001 117.423C758.307 117.235 756.755 117.141 755.343 117.141C753.367 117.141 751.484 117.282 749.696 117.564C748.002 117.752 746.496 118.175 745.179 118.834C743.861 119.492 742.826 120.386 742.073 121.515C741.32 122.643 740.944 124.054 740.944 125.747C740.944 129.039 742.026 131.344 744.191 132.661C746.449 133.884 749.508 134.495 753.367 134.495ZM751.673 72.9793C757.884 72.9793 763.06 73.6847 767.201 75.0956C771.342 76.5065 774.636 78.5288 777.083 81.1625C779.624 83.7962 781.412 86.9943 782.447 90.7567C783.482 94.5192 784 98.7049 784 103.314V147.052C780.988 147.71 776.8 148.463 771.436 149.309C766.072 150.25 759.578 150.72 751.955 150.72C747.155 150.72 742.779 150.297 738.826 149.451C734.968 148.604 731.627 147.24 728.804 145.359C725.98 143.384 723.816 140.844 722.31 137.74C720.804 134.636 720.051 130.827 720.051 126.312C720.051 121.985 720.898 118.316 722.592 115.307C724.38 112.297 726.733 109.898 729.651 108.111C732.568 106.324 735.909 105.054 739.673 104.301C743.438 103.455 747.344 103.032 751.39 103.032C754.12 103.032 756.519 103.173 758.59 103.455C760.754 103.643 762.495 103.925 763.813 104.301V102.326C763.813 98.7519 762.731 95.883 760.566 93.7196C758.402 91.5562 754.637 90.4746 749.273 90.4746C745.697 90.4746 742.167 90.7567 738.685 91.3211C735.203 91.7914 732.192 92.4969 729.651 93.4375L726.968 76.5065C728.192 76.1303 729.698 75.7541 731.486 75.3778C733.368 74.9075 735.391 74.5313 737.556 74.2491C739.72 73.8729 741.979 73.5907 744.332 73.4026C746.779 73.1204 749.226 72.9793 751.673 72.9793Z" fill="#322153"/>
<path d="M19.5363 68.3225L67.3904 54.9097L80.4237 104.146L69.3578 97.6354L48.0144 135.672H80.8619L59.1952 158.148L84.579 184.051H41.762C26.4834 184.051 13.3688 176.259 5.72948 162.647C-1.90983 149.032 -1.90983 133.453 5.72948 119.838L30.8892 75.0009L19.5363 68.3225Z" fill="#5FDC68"/>
<path d="M107.179 194L71.9624 158.065L106.889 121.834L106.943 135.673H145.992L129.169 105.695L161.095 114.35L168.646 84.8603L188.27 119.835C195.91 133.45 195.91 149.03 188.27 162.645C180.631 176.257 167.516 184.048 152.238 184.048H107.137L107.176 193.997L107.179 194Z" fill="#5FDC68"/>
<path d="M133.037 21.4026L154.438 59.5393L166.163 52.5066L153.525 101.852L105.565 88.8491L116.154 82.4973L97.0045 48.3746L83.001 73.3285L75.0413 43.2695L43.7833 52.0311L60.9719 21.4032C68.6112 7.78805 81.7259 0 97.0045 0C112.283 0 125.401 7.79062 133.037 21.4026Z" fill="#5FDC68"/>
</svg>
